# xmcd
# Track frame offsets:
# 150
# 14880
# 28443
# 47047
# 59493
# 74442
# 89682
# 108580
# 124578
# 139474
#
# Disc length: 2049 seconds
# Revision: 0
# Processed by: cddbd v1.5.2PL0 Copyright (c) Steve Scherf et al.
# Submitted via: VisiTrax 2.10.3.257 - For more info visit www.synapsa.com
#
DISCID=a207ff0a
DTITLE=Neely, Sam - Loving You Just Crossed My Mind
DYEAR=2003
DGENRE=Folk
TTITLE0=Loving You Just Crossed My Mind
TTITLE1=Blue Time
TTITLE2=Before Your Eyes
TTITLE3=Jessie California
TTITLE4=Can't Help Wondering
TTITLE5=Long Road To Texas
TTITLE6=Molly Bee
TTITLE7=Cry Me A Song
TTITLE8=Every Day Is The Same As Today
TTITLE9=Pray
EXTD=
EXTT0=
EXTT1=
EXTT2=
EXTT3=
EXTT4=
EXTT5=
EXTT6=
EXTT7=
EXTT8=
EXTT9=
PLAYORDER=
